<?xml version="1.0" encoding="utf-8"?>
<svg version="1.1" id="Layer_1" xmlns="http://www.w3.org/2000/svg" x="0px" y="0px" viewBox="0 0 65.3 60" style="enable-background:new 0 0 500 500;" preserveAspectRatio="xMinYMin">
  <path xmlns="http://www.w3.org/2000/svg" d="M 62.699 13.906 L 60.704 13.906 C 53.819 13.906 46.663 0 29.863 0 C 14.328 0 8.83 10.252 2.55 13.277 C 0.185 14.313 -0.721 17.199 0.628 19.4 C 3.298 24.5 10.186 36.539 6.991 52.729 L 6.452 54.773 C 6.046 56.315 6.967 57.894 8.508 58.3 L 11.876 59.187 C 13.419 59.594 14.998 58.673 15.403 57.13 L 16.227 54 C 16.232 53.978 16.235 53.956 16.24 53.933 C 17.76 47.459 17.803 40.726 16.364 34.233 C 16.364 34.224 16.364 34.215 16.364 34.206 C 16.364 34.13 16.427 34.068 16.503 34.068 C 16.53 34.068 16.555 34.076 16.577 34.089 C 25.238 40.757 26.083 60 45.485 60 C 53.646 60 59.309 54.5 59.309 47.785 C 59.309 41.498 54.692 36.517 47.609 36.517 C 47.409 36.517 47.223 36.517 47.037 36.528 L 46.888 36.528 C 46.736 36.534 46.588 36.543 46.441 36.554 L 46.159 36.577 L 46.071 36.586 C 45.243 36.658 44.426 36.823 43.634 37.077 C 42.749 37.359 41.911 37.774 41.15 38.307 C 41.044 38.376 40.94 38.448 40.838 38.526 L 40.513 38.773 L 39.552 39.507 C 38.401 40.385 38.179 42.03 39.057 43.181 L 41.546 46.445 C 42.425 47.596 44.07 47.818 45.221 46.939 C 45.799 46.426 46.473 46.032 47.203 45.781 C 47.266 45.766 47.331 45.751 47.396 45.74 C 47.436 45.733 47.476 45.725 47.517 45.718 C 47.558 45.711 47.617 45.705 47.674 45.7 C 47.774 45.691 47.874 45.684 47.982 45.684 C 49.142 45.719 50.087 46.627 50.169 47.784 C 50.169 49.552 48.669 50.892 45.478 50.892 C 36.472 50.892 34.722 43.667 30.078 36.115 C 37.065 35.996 43.869 33.868 49.678 29.985 C 49.87 29.886 50.054 29.773 50.229 29.648 L 50.345 29.564 L 50.389 29.537 C 50.612 29.404 50.823 29.252 51.019 29.082 L 51.732 28.571 C 52.836 27.781 53.09 26.245 52.299 25.141 L 49.853 21.707 C 49.064 20.602 47.527 20.348 46.423 21.139 L 45.545 21.769 C 45.484 21.803 45.425 21.841 45.37 21.884 C 45.32 21.924 45.25 21.977 45.164 22.041 L 44.92 22.215 C 44.893 22.234 44.868 22.255 44.842 22.274 C 40.046 25.455 34.397 27.103 28.642 27 C 25.13 27.051 21.655 26.268 18.503 24.716 C 18.226 24.563 17.943 24.412 17.654 24.263 C 15.263 22.897 13.15 21.093 11.425 18.945 C 11.154 18.61 11.204 18.119 11.536 17.845 C 14.045 15.633 16.757 13.664 19.636 11.962 C 19.591 12.354 19.568 12.748 19.567 13.142 C 19.567 21.071 28.151 26.027 35.017 22.062 C 38.204 20.222 40.167 16.822 40.167 13.142 C 40.167 12.78 40.147 12.418 40.109 12.057 C 47.024 16.094 51.952 22.907 60.454 23.043 C 60.533 23.043 60.614 23.049 60.694 23.049 L 62.703 23.049 C 64.127 23.05 65.28 21.896 65.28 20.473 L 65.28 16.483 C 65.28 15.06 64.127 13.906 62.703 13.906" fill="#eb7647" style="stroke-width: 1;"/>
</svg>