<svg xmlns="http://www.w3.org/2000/svg" width="349.087" height="185.375"><path d="M86.677 2.894H46.792C20.95 2.894.001 23.842 0 49.684v88.9c0 25.843 20.95 46.791 46.792 46.79h39.885a1.337 1.337 0 0 0 1.339-1.337V4.23c0-.738-.6-1.337-1.339-1.336zm-13.374 167.77H46.792c-17.717.002-32.08-14.361-32.077-32.079v-88.9c-.004-17.717 14.36-32.082 32.077-32.078h26.511zM45.567 40.481c15.288 0 22.942 18.482 12.133 29.29C46.89 80.58 28.41 72.926 28.41 57.638c0-9.475 7.681-17.157 17.157-17.157zm90.126-37.587h-28.232c-.657 0-1.19.533-1.187 1.19v179.954c0 .739.598 1.337 1.336 1.337h28.083c25.842 0 46.79-20.948 46.79-46.79v-88.9c0-25.841-20.948-46.79-46.79-46.79zm6.682 118.815c-16.439.001-24.669-19.872-13.047-31.495 11.622-11.623 31.496-3.393 31.496 13.045 0 10.19-8.26 18.45-18.449 18.45zm70.848 63.666v-31.369c3.241-2.664 15.5-13.207 28.462-24.353 11.655-10.026 23.3-20.087 35.176-29.849 8.952-7.359 25.948-20.866 26.49-34.1.636-15.567-10.4-25.656-26.889-25.656-9.825 0-21.364 5.46-28.341 11.405-7.092 6.043-15.956 13.618-15.956 13.618L206.33 37.065C228.264 12.483 251.841.021 276.42.021c52.378-1.3 91.844 57.072 52.009 102.841a392.872 392.872 0 0 1-47.734 44.117h68.392v38.394H213.223Z" style="fill:#ec1414;fill-opacity:1;fill-rule:evenodd"/></svg>