<svg xmlns="http://www.w3.org/2000/svg" width="550" height="120"><g transform="translate(1 1)"><path fill="none" d="M-1-1h550v120H-1z"/></g><g transform="translate(1 1)"><g fill-rule="evenodd" style="fill:#0070d1"><path d="M.887 0a.85.85 0 0 0-.85.848v12.191c.018.474.41.85.887.85h129.478c6.697 0 16.78 5.44 16.78 18.49 0 13.05-11.17 18.525-16.78 18.525H28.982c-16.53 0-28.98 14.806-28.98 33.131v33.522a.81.81 0 0 0 .236.609.818.818 0 0 0 .614.238H25.08a.85.85 0 0 0 .852-.847V84c0-11.334 8.57-20 17.97-20l95.014.72c22.952 0 34.16-14.121 34.16-32.341S161.868 0 138.918 0Zm277.55.543c-22.977 0-34.199 14.12-34.199 32.37v50.776c0 11.331-7.612 21.374-19.011 21.374h-59.403a.85.85 0 0 0-.851.847v11.192a.85.85 0 0 0 .851.845h70.031c22.978 0 34.237-12.12 34.237-30.334v-54.7c0-11.367 8.295-19.52 19.695-19.52h59.74a.85.85 0 0 0 .854-.848V1.39a.85.85 0 0 0-.854-.848zM376.19.543h165.629c.787 0 1.181.305 1.181.915V12.8c0 .551-.394.8-1.181.749-92.748-.007-139.506-.007-140.274 0-.768.007-1.248.267-1.44.78v27.403c0 2.045 1.753 8.638 8.47 8.638h105.299c12.86 0 34.198 8.961 34.198 33.742 0 24.78-22.373 33.977-31.482 33.977h-140.4c-.69 0-1.018-.111-1.018-.947s-.044-10.678 0-11.204c.045-.526.219-.815 1.017-.82.799-.006 116.613 0 123.891 0 7.279 0 22.051-5.542 22.051-21.006 0-15.465-15.202-20.112-19.073-20.112h-111.23c-2.245 0-7.673-.811-11.853-5.62-4.18-4.81-4.803-7.54-4.803-14.004V1.458c0-.61.34-.915 1.017-.915z" style="fill:#0070d1"/></g></g></svg>